<svg width="23" height="19" viewBox="0 0 23 19" fill="none" xmlns="http://www.w3.org/2000/svg">
<path d="M13.1504 1.02557H3.58008C2.47551 1.02557 1.58008 1.921 1.58008 3.02557V10.7865C1.58008 11.8911 2.47551 12.7865 3.58008 12.7865H13.1504C14.255 12.7865 15.1504 11.8911 15.1504 10.7865V3.02557C15.1504 1.921 14.255 1.02557 13.1504 1.02557Z" stroke="#22A447" stroke-width="2" stroke-linecap="round" stroke-linejoin="round"/>
<path d="M15.1494 7.54998C15.1494 6.44541 16.0448 5.54998 17.1494 5.54998H17.9397C18.4702 5.54998 18.9789 5.76069 19.354 6.13577L20.8964 7.67826C21.2715 8.05333 21.4822 8.56204 21.4822 9.09247V10.7875C21.4822 11.8921 20.5868 12.7875 19.4822 12.7875H17.1494C16.0448 12.7875 15.1494 11.8921 15.1494 10.7875V7.54998Z" stroke="#22A447" stroke-width="2" stroke-linecap="round" stroke-linejoin="round"/>
<path d="M5.65137 17.3088C6.90048 17.3088 7.91309 16.2962 7.91309 15.0471C7.91309 13.7979 6.90048 12.7853 5.65137 12.7853C4.40226 12.7853 3.38965 13.7979 3.38965 15.0471C3.38965 16.2962 4.40226 17.3088 5.65137 17.3088Z" stroke="#22A447" stroke-width="2" stroke-linecap="round" stroke-linejoin="round"/>
<path d="M17.4111 17.3088C18.6603 17.3088 19.6729 16.2962 19.6729 15.0471C19.6729 13.7979 18.6603 12.7853 17.4111 12.7853C16.162 12.7853 15.1494 13.7979 15.1494 15.0471C15.1494 16.2962 16.162 17.3088 17.4111 17.3088Z" stroke="#22A447" stroke-width="2" stroke-linecap="round" stroke-linejoin="round"/>
</svg>
